<svg width="125" height="91" viewBox="0 0 125 91" fill="none" xmlns="http://www.w3.org/2000/svg">
<path d="M86.688 0C93.6853 0 99.5733 0.768 104.352 2.304C109.216 3.75467 113.099 6.18667 116 9.60001C118.987 13.0133 121.163 17.664 122.528 23.552C123.893 29.3547 124.576 36.6507 124.576 45.44C124.576 54.2293 123.893 61.568 122.528 67.456C121.163 73.2587 118.987 77.8667 116 81.28C113.099 84.6933 109.216 87.168 104.352 88.704C99.5733 90.1547 93.6853 90.88 86.688 90.88C79.9467 90.88 73.76 90.752 68.128 90.496C62.496 90.24 57.12 89.9413 52 89.6L60.192 75.136C63.4347 75.3067 67.2747 75.4773 71.712 75.648C76.2347 75.7333 81.2267 75.776 86.688 75.776C91.04 75.776 94.4533 74.9227 96.928 73.216C99.488 71.424 101.28 68.3093 102.304 63.872C103.413 59.4347 103.968 53.2907 103.968 45.44C103.968 37.5893 103.413 31.4453 102.304 27.008C101.28 22.5707 99.488 19.456 96.928 17.664C94.4533 15.872 91.04 14.976 86.688 14.976C81.4827 14.976 76.832 15.0187 72.736 15.104C68.64 15.104 64.6293 15.104 60.704 15.104L52 1.28C57.12 0.93867 62.4533 0.640004 68 0.384003C73.632 0.128001 79.8613 0 86.688 0ZM71.584 1.28V89.6H52V1.28H71.584Z" fill="white"/>
<path d="M20.544 0.679993V89H0.959961V0.679993H20.544ZM53.312 34.6V49.32H19.52V34.6H53.312ZM71.488 0.679993V89H51.904V0.679993H71.488Z" fill="white"/>
</svg>
